Coordinates
version=1
nRows=24
nColumns=24
inDegrees=yes

Units are S.I. units (second, meters, Newtons, ...)
Angles are in degrees.

endheader
time	pelvis_tilt	pelvis_list	pelvis_rotation	pelvis_tx	pelvis_ty	pelvis_tz	hip_flexion_r	hip_adduction_r	hip_rotation_r	knee_angle_r	ankle_angle_r	subtalar_angle_r	mtp_angle_r	hip_flexion_l	hip_adduction_l	hip_rotation_l	knee_angle_l	ankle_angle_l	subtalar_angle_l	mtp_angle_l	lumbar_extension	lumbar_bending	lumbar_rotation
      4.24500000	    -15.39505232	      2.85001395	     -6.40263703	     -0.30317412	     -0.03066901	      0.01624210	     -1.06903751	     -0.58212152	      2.51185787	    -11.64612567	      3.61593839	     11.74924753	     17.36547905	     36.16436997	      0.09252758	    -17.69333325	     -6.00707720	    -14.53156329	     10.73700850	     15.01000139	     13.65022110	     -3.41922899	      9.60232491
      4.25000000	    -15.41967246	      3.07017818	     -6.52739669	     -0.29718606	     -0.03086299	      0.01615574	     -1.04549311	     -0.92451649	      2.44228020	    -12.16717159	      3.35546288	     12.26815726	     17.68824624	     35.92157772	      0.33649493	    -17.57114282	     -5.96025586	    -15.27537773	     10.17274633	     15.00896805	     13.73813151	     -3.67126324	      9.70976213
      4.25500000	    -15.44359454	      3.33005339	     -6.62083553	     -0.29115189	     -0.03097935	      0.01602807	     -1.00217872	     -1.31686295	      2.30585957	    -12.71822982	      3.07786463	     12.85035195	     17.98389292	     35.66183834	      0.64738465	    -17.36301267	     -5.85334695	    -16.11869667	      9.45768125	     14.95420492	     13.83504713	     -3.97446027	      9.78354040
      4.26000000	    -15.45346266	      3.60753583	     -6.63932945	     -0.28515970	     -0.03102418	      0.01580819	     -0.95717093	     -1.73542740	      2.07244152	    -13.29716570	      2.78362917	     13.46123068	     18.32064988	     35.40204116	      1.02723116	    -17.02391671	     -5.74250555	    -17.05792752	      8.55414347	     14.83709382	     13.90003962	     -4.32233698	      9.79987417
      4.26500000	    -15.48384961	      3.91961002	     -6.73877833	     -0.27907830	     -0.03096960	      0.01569158	     -0.84596286	     -2.19076194	      1.88180881	    -13.92943570	      2.41386863	     14.09631555	     18.59512702	     35.13289077	      1.39477415	    -16.68189208	     -5.60459783	    -17.92107240	      7.57111059	     14.55932792	     14.02142906	     -4.67522212	      9.89192878
      4.27000000	    -15.51325841	      4.25062655	     -6.79910688	     -0.27301039	     -0.03086010	      0.01552436	     -0.71122058	     -2.67320670	      1.63485913	    -14.60092967	      2.02588004	     14.77185238	     18.86457531	     34.87710258	      1.80527236	    -16.21880450	     -5.50221727	    -18.76633382	      6.44762397	     14.13603155	     14.13563059	     -5.05823038	      9.95905236
      4.27500000	    -15.54276778	      4.58517440	     -6.84004272	     -0.26692709	     -0.03069444	      0.01532826	     -0.54968626	     -3.16596905	      1.33234908	    -15.31521778	      1.58519247	     15.47369028	     19.14311125	     34.62946851	      2.23122706	    -15.65278976	     -5.44245498	    -19.53175300	      5.22787361	     13.56893123	     14.25155772	     -5.45003848	     10.00956121
      4.28000000	    -15.57737389	      4.91836853	     -6.87168969	     -0.26082987	     -0.03048459	      0.01511692	     -0.35256234	     -3.66396327	      0.98600627	    -16.07601309	      1.08579539	     16.19922025	     19.44026164	     34.39509022	      2.65819453	    -15.01776327	     -5.42951640	    -20.18185783	      3.97473166	     12.88551784	     14.37319087	     -5.84024732	     10.04815061
      4.28500000	    -15.61818780	      5.24552098	     -6.88930735	     -0.25472176	     -0.03023993	      0.01488393	     -0.11903157	     -4.16392797	      0.59069737	    -16.88349861	      0.51847422	     16.94628835	     19.77135060	     34.17680327	      3.08105455	    -14.34428187	     -5.46419632	    -20.69846801	      2.74368341	     12.12644310	     14.50155664	     -6.22608416	     10.07068746
      4.29000000	    -15.66292685	      5.55862284	     -6.87749488	     -0.24860911	     -0.02996791	      0.01461072	      0.14493648	     -4.65868183	      0.12747898	    -17.73403875	     -0.13316431	     17.69256021	     20.17709391	     33.97492345	      3.49924258	    -13.64740837	     -5.54904973	    -21.05825524	      1.58703829	     11.31741418	     14.62937970	     -6.60323168	     10.06056969
      4.29500000	    -15.72307542	      5.86451796	     -6.86714745	     -0.24249748	     -0.02966092	      0.01433171	      0.45925411	     -5.15589456	     -0.35136409	    -18.62611906	     -0.88333908	     18.45777235	     20.64017709	     33.79719393	      3.89613085	    -13.04558442	     -5.66500554	    -21.27040786	      0.60089976	     10.55221951	     14.77285550	     -6.96910237	     10.04525928
      4.30000000	    -15.78765968	      6.16609784	     -6.81594320	     -0.23643794	     -0.02934393	      0.01402433	      0.81636138	     -5.65746848	     -0.89357300	    -19.57602364	     -1.72433022	     19.16250343	     21.28740756	     33.63840675	      4.29767927	    -12.45885633	     -5.82102078	    -21.32648735	     -0.22553548	      9.76559648	     14.90658815	     -7.34657863	      9.99682174
      4.30500000	    -15.87894765	      6.47522503	     -6.77111493	     -0.23034252	     -0.02900860	      0.01372482	      1.24027321	     -6.18241177	     -1.47338092	    -20.56869005	     -2.69050090	     19.89153123	     22.00531039	     33.51133666	      4.68573849	    -12.07508727	     -5.98909479	    -21.25287320	     -0.80848707	      9.12062463	     15.07937418	     -7.72272873	      9.95742318
      4.31000000	    -15.97835030	      6.78118913	     -6.76764401	     -0.22423738	     -0.02862711	      0.01347136	      1.72295020	     -6.72032470	     -2.02595185	    -21.62081463	     -3.76057334	     20.69629156	     22.53187515	     33.39117893	      5.03016106	    -11.95775913	     -6.15237653	    -21.07919755	     -1.09667677	      8.77545479	     15.27159549	     -8.07661890	      9.96679987
      4.31500000	    -16.09428062	      6.99935274	     -6.68488904	     -0.21840488	     -0.02824024	      0.01301940	      2.26427998	     -7.18886347	     -2.71752485	    -22.69284330	     -5.11345896	     21.32834369	     24.00397163	     33.31271480	      5.33777687	    -11.54298992	     -6.40161875	    -20.68947726	     -1.42674139	      7.93246770	     15.40560764	     -8.35326345	      9.88452111
      4.32000000	    -16.21831201	      7.29075143	     -6.60475313	     -0.21248670	     -0.02786474	      0.01268787	      2.87138694	     -7.74868745	     -3.42374927	    -23.86392086	     -6.48530652	     21.94054404	     25.10255945	     33.23939794	      5.68611387	    -11.51189879	     -6.60759861	    -20.32359538	     -1.37055506	      7.63854090	     15.58184728	     -8.71771752	      9.81778753
      4.32500000	    -16.35915353	      7.49941015	     -6.53595574	     -0.20664633	     -0.02743471	      0.01223372	      3.52095592	     -8.24540907	     -4.10597121	    -25.01298409	     -8.14391549	     22.53740559	     26.58447551	     33.17447875	      5.95660903	    -11.39998618	     -6.83176233	    -19.83552266	     -1.30852539	      7.20001757	     15.75290475	     -8.97091808	      9.74234849
      4.33000000	    -16.50003388	      7.76249046	     -6.42824623	     -0.20082743	     -0.02703695	      0.01181996	      4.22824734	     -8.81435217	     -4.83807557	    -26.26751121	     -9.82007430	     22.97760132	     27.81279595	     33.10801918	      6.28918631	    -11.40256380	     -7.02594947	    -19.39717508	     -1.11746429	      6.97193643	     15.92201314	     -9.30531660	      9.63271800
      4.33500000	    -16.65151463	      7.98050284	     -6.32593774	     -0.19509749	     -0.02662471	      0.01133458	      4.98361831	     -9.35396394	     -5.54220370	    -27.52897142	    -11.70795380	     23.30398403	     29.30957109	     33.04638946	      6.57948405	    -11.36105199	     -7.22350205	    -18.90177225	     -0.90334446	      6.68689505	     16.08209954	     -9.57795883	      9.52270591
      4.34000000	    -16.79801791	      8.17037404	     -6.23042062	     -0.18941066	     -0.02618735	      0.01081255	      5.76271456	     -9.87074810	     -6.17430325	    -28.78728872	    -13.77088501	     23.46127397	     30.96821851	     32.96499931	      6.84427090	    -11.32098404	     -7.39957202	    -18.40248585	     -0.66668493	      6.44739113	     16.22825227	     -9.81248011	      9.40462607
      4.34500000	    -16.93673336	      8.34616162	     -6.13514869	     -0.18378401	     -0.02575907	      0.01025098	      6.57197685	    -10.38244370	     -6.75671396	    -30.08148591	    -15.90163181	     23.49535621	     32.49687473	     32.86315359	      7.10159758	    -11.28008997	     -7.54755864	    -17.92870027	     -0.44202195	      6.29094335	     16.35375732	    -10.02838562	      9.28233943
      4.35000000	    -17.06094133	      8.55273337	     -6.02548941	     -0.17812714	     -0.02532712	      0.00973928	      7.38841680	    -10.91440132	     -7.28216564	    -31.38140492	    -18.08934100	     23.15027425	     34.11134149	     32.72028418	      7.39991349	    -11.24324145	     -7.64422485	    -17.49169830	     -0.21861824	      6.13694121	     16.47326331	    -10.29018161	      9.14335082
      4.35500000	    -17.17823071	      8.73114870	     -5.92809350	     -0.17255123	     -0.02490170	      0.00918563	      8.22876712	    -11.40872321	     -7.69930449	    -32.69674521	    -20.27500035	     22.67586804	     35.56094540	     32.55929309	      7.67182755	    -11.20487265	     -7.71625593	    -17.07887043	     -0.01832754	      6.04972951	     16.57015441	    -10.51051383	      9.00647468
      4.36000000	    -17.31752979	      8.91976362	     -5.80723466	     -0.16694201	     -0.02453616	      0.00859396	      9.10874148	    -11.90538113	     -8.03697972	    -34.03982917	    -22.34547901	     22.15466896	     36.62384341	     32.40401689	      7.96716006	    -11.20253396	     -7.74940550	    -16.69815350	      0.19644267	      6.03670506	     16.69684440	    -10.74640454	      8.81655254
